<svg xmlns="http://www.w3.org/2000/svg" xmlns:xlink="http://www.w3.org/1999/xlink" width="74" height="60" viewBox="0 0 74 60"><defs><linearGradient id="a" x1="0.5" x2="0.5" y2="1" gradientUnits="objectBoundingBox"><stop offset="0" stop-color="#E8F7F6"></stop><stop offset="1" stop-color="#E8F7F6"></stop></linearGradient></defs><g transform="translate(0 -0.102)"><path d="M17.5,60a2.406,2.406,0,0,1-2.365-2.446v-21.2H2.365A2.406,2.406,0,0,1,0,33.913V2.446A2.406,2.406,0,0,1,2.365,0h30.27A2.406,2.406,0,0,1,35,2.446V33.913a2.546,2.546,0,0,1-.029.382.125.125,0,0,1,0,.028l-.053.229-.876,2.817L30.839,47.875l-2.345,7.178-.4,1.215-.377,1.354a6.758,6.758,0,0,1-.57,1.362A2.319,2.319,0,0,1,25.225,60Z" transform="translate(74 60.102) rotate(180)" fill="url(#a)"></path><path d="M17.5,60a2.406,2.406,0,0,1-2.365-2.446v-21.2H2.365A2.406,2.406,0,0,1,0,33.913V2.446A2.406,2.406,0,0,1,2.365,0h30.27A2.406,2.406,0,0,1,35,2.446V33.913a2.546,2.546,0,0,1-.029.382.125.125,0,0,1,0,.028l-.053.229-.876,2.817L30.839,47.875l-2.345,7.178-.4,1.215-.377,1.354a6.758,6.758,0,0,1-.57,1.362A2.319,2.319,0,0,1,25.225,60Z" transform="translate(35 60.102) rotate(180)" fill="url(#a)"></path></g></svg>